<?xml version="1.0" standalone="no"?>
<!DOCTYPE svg PUBLIC "-//W3C//DTD SVG 20010904//EN"
 "http://www.w3.org/TR/2001/REC-SVG-20010904/DTD/svg10.dtd">
<svg version="1.0" xmlns="http://www.w3.org/2000/svg"
 width="1200.000000pt" height="1200.000000pt" viewBox="0 0 1200.000000 1200.000000"
 preserveAspectRatio="xMidYMid meet">

<g transform="translate(0.000000,1200.000000) scale(0.100000,-0.100000)"
fill="#000000" stroke="none">
<path d="M5630 10303 c-1043 -61 -2078 -407 -2860 -955 -313 -219 -677 -556
-886 -818 -366 -459 -599 -949 -703 -1475 -83 -421 -70 -909 36 -1330 193
-775 686 -1482 1421 -2038 186 -141 421 -289 684 -431 l87 -46 -20 -68 c-183
-628 -462 -1625 -474 -1693 -8 -45 14 -103 46 -120 34 -18 100 -14 153 10 155
68 845 524 1740 1149 l279 195 151 -17 c266 -30 414 -37 711 -38 308 0 486 10
760 43 968 116 1897 479 2615 1020 330 249 650 574 877 890 720 1005 827 2224
287 3300 -175 350 -396 651 -699 955 -251 252 -441 407 -720 589 -776 507
-1692 804 -2705 875 -131 9 -643 11 -780 3z m-1488 -2716 c219 -107 203 -420
-25 -504 -21 -7 -117 -12 -279 -12 l-247 -1 -3 -862 -3 -863 -24 -53 c-96
-212 -409 -215 -513 -4 l-23 47 -3 868 -3 867 -248 0 -248 0 -62 31 c-89 45
-139 119 -148 219 -13 136 77 256 214 289 21 5 374 9 798 8 l760 -2 57 -28z
m928 11 c91 -28 189 -104 236 -183 31 -54 711 -1842 729 -1920 21 -85 19 -191
-4 -241 -35 -78 -122 -118 -256 -118 -92 -1 -143 14 -190 56 -33 29 -46 58
-156 346 l-31 82 -430 -2 -431 -3 -76 -199 c-72 -189 -78 -202 -118 -232 -107
-82 -336 -62 -414 36 -51 63 -57 187 -16 320 35 112 700 1846 721 1878 32 50
114 125 167 153 87 45 178 54 269 27z m1536 -8 c51 -22 113 -82 139 -135 19
-39 20 -68 23 -907 l2 -868 333 0 c312 0 335 -2 377 -21 101 -45 154 -127 154
-234 0 -84 -23 -135 -85 -188 -78 -67 -77 -67 -629 -67 -552 0 -551 0 -629 67
-23 19 -52 54 -64 77 l-22 41 0 1030 0 1030 22 40 c79 142 237 198 379 135z
m1539 1 c62 -28 101 -66 134 -133 l31 -61 0 -329 c0 -180 3 -328 7 -328 4 0
192 184 418 409 l410 409 56 12 c172 38 346 -119 326 -292 -3 -26 -13 -62 -23
-80 -9 -18 -165 -182 -346 -364 l-330 -332 343 -453 c189 -250 356 -478 371
-508 48 -93 35 -216 -31 -300 -63 -79 -202 -122 -297 -91 -86 28 -113 59 -454
511 -184 243 -338 447 -342 453 -4 7 -27 -8 -58 -39 l-50 -49 0 -331 c0 -370
-3 -390 -67 -464 -126 -148 -360 -123 -457 49 l-31 55 -3 1005 c-2 710 0 1020
8 1057 37 172 223 266 385 194z"/>
<path d="M4828 6517 c-76 -215 -136 -392 -134 -394 1 -2 127 -2 279 -1 l275 3
-136 387 c-76 212 -139 389 -142 391 -3 3 -67 -171 -142 -386z"/>
</g>
</svg>
